# This file uses centimeters as units for non-parametric coordinates.

mtllib leftArm.mtl
g default
v 0.000000 -1.000000 -0.200000
v -0.400000 -1.000000 -0.200000
v 0.000000 0.200000 -0.200000
v -0.400000 0.200000 -0.200000
v 0.000000 0.200000 0.200000
v -0.400000 0.200000 0.200000
v 0.000000 -1.000000 0.200000
v -0.400000 -1.000000 0.200000
vt 0.689012 0.004007
vt 0.750638 0.004007
vt 0.750638 0.373207
vt 0.689012 0.373207
vt 0.688140 0.499936
vt 0.688140 0.373932
vt 0.749766 0.373932
vt 0.749766 0.499936
vt 0.813153 0.373245
vt 0.874778 0.373245
vt 0.874778 0.003264
vt 0.813153 0.003264
vt 0.811889 0.499936
vt 0.750264 0.499936
vt 0.750264 0.373932
vt 0.811889 0.373932
vt 0.625766 0.004122
vt 0.688632 0.004122
vt 0.688632 0.373141
vt 0.625766 0.373141
vt 0.750864 0.003596
vt 0.812489 0.003596
vt 0.812489 0.373262
vt 0.750864 0.373262
vn 0.000000 0.000000 -1.000000
vn 0.000000 0.000000 -1.000000
vn 0.000000 0.000000 -1.000000
vn 0.000000 0.000000 -1.000000
vn 0.000000 1.000000 0.000000
vn 0.000000 1.000000 0.000000
vn 0.000000 1.000000 0.000000
vn 0.000000 1.000000 0.000000
vn 0.000000 0.000000 1.000000
vn 0.000000 0.000000 1.000000
vn 0.000000 0.000000 1.000000
vn 0.000000 0.000000 1.000000
vn 0.000000 -1.000000 0.000000
vn 0.000000 -1.000000 0.000000
vn 0.000000 -1.000000 0.000000
vn 0.000000 -1.000000 0.000000
vn -1.000000 0.000000 0.000000
vn -1.000000 0.000000 0.000000
vn -1.000000 0.000000 0.000000
vn -1.000000 0.000000 0.000000
vn 1.000000 0.000000 0.000000
vn 1.000000 0.000000 0.000000
vn 1.000000 0.000000 0.000000
vn 1.000000 0.000000 0.000000
s off
g initialShadingGroup ArmLeft
f 1/1/1 2/2/2 4/3/3 3/4/4
f 3/5/5 4/6/6 6/7/7 5/8/8
f 5/9/9 6/10/10 8/11/11 7/12/12
f 7/13/13 8/14/14 2/15/15 1/16/16
f 2/17/17 8/18/18 6/19/19 4/20/20
f 7/21/21 1/22/22 3/23/23 5/24/24
