# This file uses centimeters as units for non-parametric coordinates.

mtllib Right_Arm.mtl
g default
v 0.000000 -1.000000 0.200000
v 0.400000 -1.000000 0.200000
v 0.000000 0.200000 0.200000
v 0.400000 0.200000 0.200000
v 0.000000 0.200000 -0.200000
v 0.400000 0.200000 -0.200000
v 0.000000 -1.000000 -0.200000
v 0.400000 -1.000000 -0.200000
vt 0.813158 0.001851
vt 0.874784 0.001851
vt 0.874784 0.373559
vt 0.813158 0.373559
vt 0.688140 0.497429
vt 0.688140 0.374906
vt 0.749766 0.374906
vt 0.749766 0.497429
vt 0.749929 0.374331
vt 0.688304 0.374331
vt 0.688304 0.001053
vt 0.749929 0.001053
vt 0.750264 0.374906
vt 0.811889 0.374906
vt 0.811889 0.497429
vt 0.750264 0.497429
vt 0.625766 0.001227
vt 0.687391 0.001227
vt 0.687391 0.374129
vt 0.625766 0.374129
vt 0.812489 0.000972
vt 0.750864 0.000972
vt 0.750864 0.373799
vt 0.812489 0.373799
vn 0.000000 0.000000 1.000000
vn 0.000000 0.000000 1.000000
vn 0.000000 0.000000 1.000000
vn 0.000000 0.000000 1.000000
vn 0.000000 1.000000 0.000000
vn 0.000000 1.000000 0.000000
vn 0.000000 1.000000 0.000000
vn 0.000000 1.000000 0.000000
vn 0.000000 0.000000 -1.000000
vn 0.000000 0.000000 -1.000000
vn 0.000000 0.000000 -1.000000
vn 0.000000 0.000000 -1.000000
vn 0.000000 -1.000000 0.000000
vn 0.000000 -1.000000 0.000000
vn 0.000000 -1.000000 0.000000
vn 0.000000 -1.000000 0.000000
vn 1.000000 0.000000 0.000000
vn 1.000000 0.000000 0.000000
vn 1.000000 0.000000 0.000000
vn 1.000000 0.000000 0.000000
vn -1.000000 0.000000 0.000000
vn -1.000000 0.000000 0.000000
vn -1.000000 0.000000 0.000000
vn -1.000000 0.000000 0.000000
s off
g initialShadingGroup ArmRight
f 1/1/1 2/2/2 4/3/3 3/4/4
f 3/5/5 4/6/6 6/7/7 5/8/8
f 5/9/9 6/10/10 8/11/11 7/12/12
f 7/13/13 8/14/14 2/15/15 1/16/16
f 2/17/17 8/18/18 6/19/19 4/20/20
f 7/21/21 1/22/22 3/23/23 5/24/24
